<mxfile host="app.diagrams.net" agent="Mozilla/5.0 (Windows NT 10.0; Win64; x64) AppleWebKit/537.36 (KHTML, like Gecko) Chrome/135.0.0.0 Safari/537.36 OPR/120.0.0.0" version="28.2.0">
  <diagram name="Page-1" id="j-TZjf8S6RYhwzULQQCM">
    <mxGraphModel dx="4069" dy="2034" grid="1" gridSize="10" guides="1" tooltips="1" connect="1" arrows="1" fold="1" page="1" pageScale="1" pageWidth="1169" pageHeight="1654" math="0" shadow="0">
      <root>
        <mxCell id="0" />
        <mxCell id="1" parent="0" />
        <mxCell id="p0VomlxSAg0T8OADrMNB-1" value="" style="html=1;whiteSpace=wrap;fontSize=14;" vertex="1" parent="1">
          <mxGeometry x="670" y="390" width="1170" height="1310" as="geometry" />
        </mxCell>
        <mxCell id="p0VomlxSAg0T8OADrMNB-2" value="Entites" style="shape=folder;fontStyle=1;tabWidth=110;tabHeight=30;tabPosition=left;html=1;boundedLbl=1;labelInHeader=1;container=1;collapsible=0;recursiveResize=0;whiteSpace=wrap;fontSize=14;" vertex="1" parent="1">
          <mxGeometry x="730" y="1320" width="310" height="260" as="geometry" />
        </mxCell>
        <mxCell id="p0VomlxSAg0T8OADrMNB-3" value="&lt;div style=&quot;text-align: left;&quot;&gt;&lt;font face=&quot;monospace&quot;&gt;Notification&lt;/font&gt;&lt;/div&gt;" style="swimlane;fontStyle=1;align=center;verticalAlign=top;childLayout=stackLayout;horizontal=1;startSize=26;horizontalStack=0;resizeParent=1;resizeParentMax=0;resizeLast=0;collapsible=1;marginBottom=0;whiteSpace=wrap;html=1;fillColor=#dae8fc;strokeColor=#6c8ebf;rounded=1;fontSize=14;" vertex="1" parent="p0VomlxSAg0T8OADrMNB-2">
          <mxGeometry x="49.5" y="60" width="230" height="190" as="geometry">
            <mxRectangle x="200" y="60" width="70" height="30" as="alternateBounds" />
          </mxGeometry>
        </mxCell>
        <mxCell id="p0VomlxSAg0T8OADrMNB-4" value="&lt;div&gt;&amp;nbsp; &amp;nbsp;- id : String&lt;/div&gt;&lt;div&gt;&amp;nbsp; &amp;nbsp; - patientId : String&lt;/div&gt;&lt;div&gt;&amp;nbsp; &amp;nbsp; - prescriptionId : String&lt;/div&gt;&lt;div&gt;&amp;nbsp; &amp;nbsp; - status : TreatmentStatus&lt;/div&gt;&lt;div&gt;&amp;nbsp; &amp;nbsp; - confirmationDate : LocalDateTime&lt;/div&gt;&lt;div&gt;&amp;nbsp; &amp;nbsp; - notes : String&lt;/div&gt;&lt;div&gt;&amp;nbsp; &amp;nbsp; - reminderSent : boolean&lt;/div&gt;&lt;div&gt;&amp;nbsp; &amp;nbsp; - createdAt : LocalDateTime&lt;/div&gt;" style="text;strokeColor=none;fillColor=none;align=left;verticalAlign=top;spacingLeft=4;spacingRight=4;overflow=hidden;rotatable=0;points=[[0,0.5],[1,0.5]];portConstraint=eastwest;whiteSpace=wrap;html=1;rounded=1;fontSize=14;" vertex="1" parent="p0VomlxSAg0T8OADrMNB-3">
          <mxGeometry y="26" width="230" height="164" as="geometry" />
        </mxCell>
        <mxCell id="p0VomlxSAg0T8OADrMNB-7" value="DTOs" style="shape=folder;fontStyle=1;tabWidth=110;tabHeight=30;tabPosition=left;html=1;boundedLbl=1;labelInHeader=1;container=1;collapsible=0;recursiveResize=0;whiteSpace=wrap;fontSize=14;" vertex="1" parent="1">
          <mxGeometry x="1210" y="460" width="560" height="485" as="geometry" />
        </mxCell>
        <mxCell id="p0VomlxSAg0T8OADrMNB-91" value="&lt;div style=&quot;text-align: left;&quot;&gt;&lt;span style=&quot;font-weight: 400;&quot;&gt;NotificationRequestDTO&lt;/span&gt;&lt;/div&gt;" style="swimlane;fontStyle=1;align=center;verticalAlign=top;childLayout=stackLayout;horizontal=1;startSize=26;horizontalStack=0;resizeParent=1;resizeParentMax=0;resizeLast=0;collapsible=1;marginBottom=0;whiteSpace=wrap;html=1;fillColor=#dae8fc;strokeColor=#6c8ebf;rounded=1;fontSize=14;arcSize=50;" vertex="1" parent="p0VomlxSAg0T8OADrMNB-7">
          <mxGeometry x="20" y="50" width="210" height="34" as="geometry">
            <mxRectangle x="200" y="60" width="70" height="30" as="alternateBounds" />
          </mxGeometry>
        </mxCell>
        <mxCell id="p0VomlxSAg0T8OADrMNB-93" value="" style="line;strokeWidth=1;fillColor=none;align=left;verticalAlign=middle;spacingTop=-1;spacingLeft=3;spacingRight=3;rotatable=0;labelPosition=right;points=[];portConstraint=eastwest;strokeColor=inherit;rounded=1;fontSize=14;" vertex="1" parent="p0VomlxSAg0T8OADrMNB-91">
          <mxGeometry y="26" width="210" height="8" as="geometry" />
        </mxCell>
        <mxCell id="p0VomlxSAg0T8OADrMNB-11" value="event" style="shape=folder;fontStyle=1;tabWidth=110;tabHeight=30;tabPosition=left;html=1;boundedLbl=1;labelInHeader=1;container=1;collapsible=0;recursiveResize=0;whiteSpace=wrap;fillColor=#f5f5f5;fontColor=#333333;strokeColor=#666666;fontSize=14;" vertex="1" parent="p0VomlxSAg0T8OADrMNB-7">
          <mxGeometry x="110" y="120" width="380" height="340" as="geometry" />
        </mxCell>
        <mxCell id="p0VomlxSAg0T8OADrMNB-8" value="&lt;div style=&quot;text-align: left;&quot;&gt;&lt;span style=&quot;font-weight: 400;&quot;&gt;PrescriptionReminderEvent&lt;/span&gt;&lt;/div&gt;" style="swimlane;fontStyle=1;align=center;verticalAlign=top;childLayout=stackLayout;horizontal=1;startSize=26;horizontalStack=0;resizeParent=1;resizeParentMax=0;resizeLast=0;collapsible=1;marginBottom=0;whiteSpace=wrap;html=1;fillColor=#dae8fc;strokeColor=#6c8ebf;rounded=1;fontSize=14;" vertex="1" parent="p0VomlxSAg0T8OADrMNB-11">
          <mxGeometry x="20" y="39" width="190" height="108" as="geometry">
            <mxRectangle x="200" y="60" width="70" height="30" as="alternateBounds" />
          </mxGeometry>
        </mxCell>
        <mxCell id="p0VomlxSAg0T8OADrMNB-9" value="&lt;div&gt;&amp;nbsp; - String patientId&lt;/div&gt;&lt;div&gt;&amp;nbsp; &amp;nbsp; - String prescriptionId&lt;/div&gt;&lt;div&gt;&amp;nbsp; &amp;nbsp; - String reminderLevel&lt;/div&gt;&lt;div&gt;&amp;nbsp; &amp;nbsp; - String message&lt;/div&gt;" style="text;strokeColor=none;fillColor=none;align=left;verticalAlign=top;spacingLeft=4;spacingRight=4;overflow=hidden;rotatable=0;points=[[0,0.5],[1,0.5]];portConstraint=eastwest;whiteSpace=wrap;html=1;rounded=1;fontSize=14;" vertex="1" parent="p0VomlxSAg0T8OADrMNB-8">
          <mxGeometry y="26" width="190" height="74" as="geometry" />
        </mxCell>
        <mxCell id="p0VomlxSAg0T8OADrMNB-10" value="" style="line;strokeWidth=1;fillColor=none;align=left;verticalAlign=middle;spacingTop=-1;spacingLeft=3;spacingRight=3;rotatable=0;labelPosition=right;points=[];portConstraint=eastwest;strokeColor=inherit;rounded=1;fontSize=14;" vertex="1" parent="p0VomlxSAg0T8OADrMNB-8">
          <mxGeometry y="100" width="190" height="8" as="geometry" />
        </mxCell>
        <mxCell id="p0VomlxSAg0T8OADrMNB-87" value="&lt;div style=&quot;text-align: left;&quot;&gt;&lt;span style=&quot;font-weight: 400;&quot;&gt;PrescriptionHistoryEvent&lt;/span&gt;&lt;/div&gt;" style="swimlane;fontStyle=1;align=center;verticalAlign=top;childLayout=stackLayout;horizontal=1;startSize=32;horizontalStack=0;resizeParent=1;resizeParentMax=0;resizeLast=0;collapsible=1;marginBottom=0;whiteSpace=wrap;html=1;fillColor=#dae8fc;strokeColor=#6c8ebf;rounded=1;fontSize=14;" vertex="1" parent="p0VomlxSAg0T8OADrMNB-11">
          <mxGeometry x="160" y="160" width="210" height="174" as="geometry">
            <mxRectangle x="200" y="60" width="70" height="30" as="alternateBounds" />
          </mxGeometry>
        </mxCell>
        <mxCell id="p0VomlxSAg0T8OADrMNB-88" value="&lt;div&gt;&amp;nbsp; - prescriptionId: String&lt;/div&gt;&lt;div&gt;&amp;nbsp; &amp;nbsp; - action: PrescriptionAction&lt;/div&gt;&lt;div&gt;&amp;nbsp; &amp;nbsp; - timestamp: Instant&lt;/div&gt;&lt;div&gt;&amp;nbsp; &amp;nbsp; - realizedBy: String&lt;/div&gt;&lt;div&gt;&amp;nbsp; &amp;nbsp; - note: String&lt;/div&gt;&lt;div&gt;&amp;nbsp; &amp;nbsp; - patientId: String&lt;/div&gt;&lt;div&gt;&amp;nbsp; &amp;nbsp; - doctorId: String&lt;/div&gt;" style="text;strokeColor=none;fillColor=none;align=left;verticalAlign=top;spacingLeft=4;spacingRight=4;overflow=hidden;rotatable=0;points=[[0,0.5],[1,0.5]];portConstraint=eastwest;whiteSpace=wrap;html=1;rounded=1;fontSize=14;" vertex="1" parent="p0VomlxSAg0T8OADrMNB-87">
          <mxGeometry y="32" width="210" height="134" as="geometry" />
        </mxCell>
        <mxCell id="p0VomlxSAg0T8OADrMNB-89" value="" style="line;strokeWidth=1;fillColor=none;align=left;verticalAlign=middle;spacingTop=-1;spacingLeft=3;spacingRight=3;rotatable=0;labelPosition=right;points=[];portConstraint=eastwest;strokeColor=inherit;rounded=1;fontSize=14;" vertex="1" parent="p0VomlxSAg0T8OADrMNB-87">
          <mxGeometry y="166" width="210" height="8" as="geometry" />
        </mxCell>
        <mxCell id="p0VomlxSAg0T8OADrMNB-18" value="Services" style="shape=folder;fontStyle=1;tabWidth=110;tabHeight=30;tabPosition=left;html=1;boundedLbl=1;labelInHeader=1;container=1;collapsible=0;recursiveResize=0;whiteSpace=wrap;fontSize=14;" vertex="1" parent="1">
          <mxGeometry x="730" y="720" width="434" height="311" as="geometry" />
        </mxCell>
        <mxCell id="p0VomlxSAg0T8OADrMNB-29" value="«interface»&lt;br&gt;&lt;div style=&quot;text-align: left;&quot;&gt;&lt;b&gt;NotificationService&lt;/b&gt;&lt;/div&gt;" style="html=1;whiteSpace=wrap;fillColor=#dae8fc;strokeColor=#6c8ebf;rounded=1;fontSize=14;" vertex="1" parent="p0VomlxSAg0T8OADrMNB-18">
          <mxGeometry x="140" y="40" width="193.5" height="59" as="geometry" />
        </mxCell>
        <mxCell id="p0VomlxSAg0T8OADrMNB-30" value="&lt;div style=&quot;text-align: left;&quot;&gt;NotificationServiceImpl&lt;/div&gt;" style="swimlane;fontStyle=1;align=center;verticalAlign=top;childLayout=stackLayout;horizontal=1;startSize=26;horizontalStack=0;resizeParent=1;resizeParentMax=0;resizeLast=0;collapsible=1;marginBottom=0;whiteSpace=wrap;html=1;rounded=1;fillColor=#dae8fc;strokeColor=#6c8ebf;fontSize=14;" vertex="1" parent="p0VomlxSAg0T8OADrMNB-18">
          <mxGeometry x="40" y="150" width="354" height="140" as="geometry" />
        </mxCell>
        <mxCell id="p0VomlxSAg0T8OADrMNB-31" value="&lt;div&gt;&amp;nbsp; + create(dto: NotificationRequestDTO) : NotificationResponseDTO&lt;/div&gt;&lt;div&gt;&amp;nbsp; &amp;nbsp; + getByRecipient(recipientId: String) : List&amp;lt;NotificationResponseDTO&amp;gt;&lt;/div&gt;&lt;div&gt;&amp;nbsp; &amp;nbsp; + markAsRead(id: String) : void&lt;/div&gt;&lt;div&gt;&amp;nbsp; &amp;nbsp; + delete(id: String) : void&lt;/div&gt;" style="text;strokeColor=none;fillColor=none;align=left;verticalAlign=top;spacingLeft=4;spacingRight=4;overflow=hidden;rotatable=0;points=[[0,0.5],[1,0.5]];portConstraint=eastwest;whiteSpace=wrap;html=1;rounded=1;fontSize=14;" vertex="1" parent="p0VomlxSAg0T8OADrMNB-30">
          <mxGeometry y="26" width="354" height="114" as="geometry" />
        </mxCell>
        <mxCell id="p0VomlxSAg0T8OADrMNB-32" value="" style="endArrow=block;dashed=1;endFill=0;endSize=12;html=1;rounded=0;exitX=0.5;exitY=0;exitDx=0;exitDy=0;entryX=0.5;entryY=1;entryDx=0;entryDy=0;fontSize=14;" edge="1" parent="p0VomlxSAg0T8OADrMNB-18" source="p0VomlxSAg0T8OADrMNB-30" target="p0VomlxSAg0T8OADrMNB-29">
          <mxGeometry width="160" relative="1" as="geometry">
            <mxPoint x="491.50000000000045" y="450" as="sourcePoint" />
            <mxPoint x="344.5" y="370" as="targetPoint" />
          </mxGeometry>
        </mxCell>
        <mxCell id="p0VomlxSAg0T8OADrMNB-33" value="Implements" style="edgeLabel;html=1;align=center;verticalAlign=middle;resizable=0;points=[];fontSize=14;" vertex="1" connectable="0" parent="p0VomlxSAg0T8OADrMNB-32">
          <mxGeometry x="-0.0998" y="1" relative="1" as="geometry">
            <mxPoint as="offset" />
          </mxGeometry>
        </mxCell>
        <mxCell id="p0VomlxSAg0T8OADrMNB-34" value="Controllers" style="shape=folder;fontStyle=1;tabWidth=110;tabHeight=30;tabPosition=left;html=1;boundedLbl=1;labelInHeader=1;container=1;collapsible=0;recursiveResize=0;whiteSpace=wrap;fontSize=14;" vertex="1" parent="1">
          <mxGeometry x="730" y="460" width="430.5" height="210" as="geometry" />
        </mxCell>
        <mxCell id="p0VomlxSAg0T8OADrMNB-39" value="&lt;div style=&quot;text-align: left;&quot;&gt;&lt;span style=&quot;font-weight: 400;&quot;&gt;NotificationController&lt;/span&gt;&lt;/div&gt;" style="swimlane;fontStyle=1;align=center;verticalAlign=top;childLayout=stackLayout;horizontal=1;startSize=26;horizontalStack=0;resizeParent=1;resizeParentMax=0;resizeLast=0;collapsible=1;marginBottom=0;whiteSpace=wrap;html=1;rounded=1;fillColor=#dae8fc;strokeColor=#6c8ebf;fontSize=14;" vertex="1" parent="p0VomlxSAg0T8OADrMNB-34">
          <mxGeometry x="20" y="53" width="390" height="140" as="geometry" />
        </mxCell>
        <mxCell id="p0VomlxSAg0T8OADrMNB-40" value="&lt;div&gt;&lt;div&gt;&amp;nbsp;+ create(dto: NotificationRequestDTO) : NotificationResponseDTO&lt;/div&gt;&lt;div&gt;&amp;nbsp; &amp;nbsp; + getAll(recipientId: String) : List&amp;lt;NotificationResponseDTO&amp;gt;&lt;/div&gt;&lt;div&gt;&amp;nbsp; &amp;nbsp; + markAsSeen(id: String) : void&lt;/div&gt;&lt;div&gt;&amp;nbsp; &amp;nbsp; + delete(id: String) : void&lt;/div&gt;&lt;/div&gt;" style="text;strokeColor=none;fillColor=none;align=left;verticalAlign=top;spacingLeft=4;spacingRight=4;overflow=hidden;rotatable=0;points=[[0,0.5],[1,0.5]];portConstraint=eastwest;whiteSpace=wrap;html=1;rounded=1;fontSize=14;" vertex="1" parent="p0VomlxSAg0T8OADrMNB-39">
          <mxGeometry y="26" width="390" height="114" as="geometry" />
        </mxCell>
        <mxCell id="p0VomlxSAg0T8OADrMNB-41" value="Repositories" style="shape=folder;fontStyle=1;tabWidth=110;tabHeight=30;tabPosition=left;html=1;boundedLbl=1;labelInHeader=1;container=1;collapsible=0;recursiveResize=0;whiteSpace=wrap;fontSize=14;" vertex="1" parent="1">
          <mxGeometry x="730" y="1050" width="420" height="200" as="geometry" />
        </mxCell>
        <mxCell id="p0VomlxSAg0T8OADrMNB-42" value="&lt;div style=&quot;text-align: left;&quot;&gt;&lt;span style=&quot;font-weight: 400;&quot;&gt;NotificationRepository&lt;/span&gt;&lt;/div&gt;" style="swimlane;fontStyle=1;align=center;verticalAlign=top;childLayout=stackLayout;horizontal=1;startSize=26;horizontalStack=0;resizeParent=1;resizeParentMax=0;resizeLast=0;collapsible=1;marginBottom=0;whiteSpace=wrap;html=1;rounded=1;fillColor=#dae8fc;strokeColor=#6c8ebf;fontSize=14;" vertex="1" parent="p0VomlxSAg0T8OADrMNB-41">
          <mxGeometry x="20" y="75" width="380" height="90" as="geometry" />
        </mxCell>
        <mxCell id="p0VomlxSAg0T8OADrMNB-43" value="" style="line;strokeWidth=1;fillColor=none;align=left;verticalAlign=middle;spacingTop=-1;spacingLeft=3;spacingRight=3;rotatable=0;labelPosition=right;points=[];portConstraint=eastwest;strokeColor=inherit;rounded=1;fontSize=14;" vertex="1" parent="p0VomlxSAg0T8OADrMNB-42">
          <mxGeometry y="26" width="380" height="8" as="geometry" />
        </mxCell>
        <mxCell id="p0VomlxSAg0T8OADrMNB-44" value="&lt;div&gt;&amp;nbsp; &amp;nbsp; + findByRecipientId(recipientId: String) : List&amp;lt;Notification&amp;gt;&lt;/div&gt;&lt;div&gt;&lt;br&gt;&lt;/div&gt;" style="text;strokeColor=none;fillColor=none;align=left;verticalAlign=top;spacingLeft=4;spacingRight=4;overflow=hidden;rotatable=0;points=[[0,0.5],[1,0.5]];portConstraint=eastwest;whiteSpace=wrap;html=1;rounded=1;fontSize=14;" vertex="1" parent="p0VomlxSAg0T8OADrMNB-42">
          <mxGeometry y="34" width="380" height="56" as="geometry" />
        </mxCell>
        <mxCell id="p0VomlxSAg0T8OADrMNB-48" value="" style="shape=card;whiteSpace=wrap;html=1;rotation=90;flipV=1;flipH=0;direction=west;fontSize=14;" vertex="1" parent="1">
          <mxGeometry x="850" y="210" width="30" height="391" as="geometry" />
        </mxCell>
        <mxCell id="p0VomlxSAg0T8OADrMNB-49" value="&lt;h1 style=&quot;text-align: left; margin-top: 0px;&quot;&gt;&lt;span style=&quot;background-color: transparent; color: light-dark(rgb(0, 0, 0), rgb(255, 255, 255));&quot;&gt;&lt;font style=&quot;font-size: 25px;&quot;&gt;Notification-service -DC&lt;/font&gt;&lt;/span&gt;&lt;/h1&gt;" style="text;html=1;align=center;verticalAlign=middle;whiteSpace=wrap;rounded=0;fontSize=14;" vertex="1" parent="1">
          <mxGeometry x="690" y="400" width="340" height="27" as="geometry" />
        </mxCell>
        <mxCell id="p0VomlxSAg0T8OADrMNB-58" value="return" style="html=1;verticalAlign=bottom;endArrow=open;dashed=1;endSize=8;curved=0;rounded=0;entryX=0.538;entryY=0.187;entryDx=0;entryDy=0;entryPerimeter=0;fontSize=14;exitX=0.929;exitY=0.98;exitDx=0;exitDy=0;exitPerimeter=0;" edge="1" parent="1" target="p0VomlxSAg0T8OADrMNB-60">
          <mxGeometry relative="1" as="geometry">
            <mxPoint x="1822.2200000000003" y="596.8" as="sourcePoint" />
            <mxPoint x="2179.5" y="610" as="targetPoint" />
            <Array as="points" />
          </mxGeometry>
        </mxCell>
        <mxCell id="p0VomlxSAg0T8OADrMNB-59" value="Use" style="endArrow=open;endSize=12;dashed=1;html=1;rounded=0;exitX=0.53;exitY=0.967;exitDx=0;exitDy=0;entryX=0.75;entryY=0;entryDx=0;entryDy=0;fontSize=14;exitPerimeter=0;" edge="1" parent="1" source="p0VomlxSAg0T8OADrMNB-44" target="p0VomlxSAg0T8OADrMNB-3">
          <mxGeometry width="160" relative="1" as="geometry">
            <mxPoint x="1548" y="1981.5" as="sourcePoint" />
            <mxPoint x="1411" y="2126.5" as="targetPoint" />
          </mxGeometry>
        </mxCell>
        <mxCell id="p0VomlxSAg0T8OADrMNB-65" value="kafka" style="shape=folder;fontStyle=1;tabWidth=110;tabHeight=30;tabPosition=left;html=1;boundedLbl=1;labelInHeader=1;container=1;collapsible=0;recursiveResize=0;whiteSpace=wrap;fontSize=14;" vertex="1" parent="1">
          <mxGeometry x="1224" y="1064" width="530" height="320" as="geometry" />
        </mxCell>
        <mxCell id="p0VomlxSAg0T8OADrMNB-66" value="&lt;div style=&quot;text-align: left;&quot;&gt;PatientEventConsumer&lt;/div&gt;" style="swimlane;fontStyle=1;align=center;verticalAlign=top;childLayout=stackLayout;horizontal=1;startSize=26;horizontalStack=0;resizeParent=1;resizeParentMax=0;resizeLast=0;collapsible=1;marginBottom=0;whiteSpace=wrap;html=1;rounded=1;fillColor=#dae8fc;strokeColor=#6c8ebf;fontSize=14;" vertex="1" parent="p0VomlxSAg0T8OADrMNB-65">
          <mxGeometry x="10" y="63" width="370" height="60" as="geometry" />
        </mxCell>
        <mxCell id="p0VomlxSAg0T8OADrMNB-67" value="" style="line;strokeWidth=1;fillColor=none;align=left;verticalAlign=middle;spacingTop=-1;spacingLeft=3;spacingRight=3;rotatable=0;labelPosition=right;points=[];portConstraint=eastwest;strokeColor=inherit;rounded=1;fontSize=14;" vertex="1" parent="p0VomlxSAg0T8OADrMNB-66">
          <mxGeometry y="26" width="370" height="8" as="geometry" />
        </mxCell>
        <mxCell id="p0VomlxSAg0T8OADrMNB-68" value="&lt;div&gt;&lt;div&gt;&amp;nbsp; &amp;nbsp; + handlePrescriptionReminder(payload: String) : void&lt;/div&gt;&lt;/div&gt;&lt;div&gt;&lt;br&gt;&lt;/div&gt;" style="text;strokeColor=none;fillColor=none;align=left;verticalAlign=top;spacingLeft=4;spacingRight=4;overflow=hidden;rotatable=0;points=[[0,0.5],[1,0.5]];portConstraint=eastwest;whiteSpace=wrap;html=1;rounded=1;fontSize=14;" vertex="1" parent="p0VomlxSAg0T8OADrMNB-66">
          <mxGeometry y="34" width="370" height="26" as="geometry" />
        </mxCell>
        <mxCell id="p0VomlxSAg0T8OADrMNB-94" value="&lt;div style=&quot;text-align: left;&quot;&gt;PrescriptionEventConsumer&lt;/div&gt;" style="swimlane;fontStyle=1;align=center;verticalAlign=top;childLayout=stackLayout;horizontal=1;startSize=26;horizontalStack=0;resizeParent=1;resizeParentMax=0;resizeLast=0;collapsible=1;marginBottom=0;whiteSpace=wrap;html=1;rounded=1;fillColor=#dae8fc;strokeColor=#6c8ebf;fontSize=14;" vertex="1" parent="p0VomlxSAg0T8OADrMNB-65">
          <mxGeometry x="84" y="150" width="410" height="140" as="geometry" />
        </mxCell>
        <mxCell id="p0VomlxSAg0T8OADrMNB-95" value="" style="line;strokeWidth=1;fillColor=none;align=left;verticalAlign=middle;spacingTop=-1;spacingLeft=3;spacingRight=3;rotatable=0;labelPosition=right;points=[];portConstraint=eastwest;strokeColor=inherit;rounded=1;fontSize=14;" vertex="1" parent="p0VomlxSAg0T8OADrMNB-94">
          <mxGeometry y="26" width="410" height="8" as="geometry" />
        </mxCell>
        <mxCell id="p0VomlxSAg0T8OADrMNB-96" value="&lt;div&gt;&lt;div&gt;&amp;nbsp;+ send(senderId: String, recipientId: String, message: String, type: NotificationType)&lt;/div&gt;&lt;div&gt;&amp;nbsp; &amp;nbsp; + generatePatientMessage(action: PrescriptionAction) : String&lt;/div&gt;&lt;div&gt;&amp;nbsp; &amp;nbsp; + generateDoctorMessage(action: PrescriptionAction) : String&lt;/div&gt;&lt;div&gt;&amp;nbsp; &amp;nbsp; + listenAllPrescriptionEvents(message: String) : void&lt;/div&gt;&lt;/div&gt;" style="text;strokeColor=none;fillColor=none;align=left;verticalAlign=top;spacingLeft=4;spacingRight=4;overflow=hidden;rotatable=0;points=[[0,0.5],[1,0.5]];portConstraint=eastwest;whiteSpace=wrap;html=1;rounded=1;fontSize=14;" vertex="1" parent="p0VomlxSAg0T8OADrMNB-94">
          <mxGeometry y="34" width="410" height="106" as="geometry" />
        </mxCell>
        <mxCell id="p0VomlxSAg0T8OADrMNB-72" value="Use" style="endArrow=open;endSize=12;dashed=1;html=1;rounded=0;exitX=0.559;exitY=0.991;exitDx=0;exitDy=0;exitPerimeter=0;fontSize=14;entryX=0.5;entryY=0;entryDx=0;entryDy=0;" edge="1" parent="1" source="p0VomlxSAg0T8OADrMNB-40" target="p0VomlxSAg0T8OADrMNB-29">
          <mxGeometry width="160" relative="1" as="geometry">
            <mxPoint x="1192.5" y="850" as="sourcePoint" />
            <mxPoint x="1180.5" y="1040" as="targetPoint" />
          </mxGeometry>
        </mxCell>
        <mxCell id="p0VomlxSAg0T8OADrMNB-73" value="Use" style="endArrow=open;endSize=12;dashed=1;html=1;rounded=0;exitX=0.477;exitY=1.035;exitDx=0;exitDy=0;exitPerimeter=0;entryX=0.5;entryY=0;entryDx=0;entryDy=0;fontSize=14;" edge="1" parent="1" source="p0VomlxSAg0T8OADrMNB-31" target="p0VomlxSAg0T8OADrMNB-42">
          <mxGeometry width="160" relative="1" as="geometry">
            <mxPoint x="1174.5" y="1160" as="sourcePoint" />
            <mxPoint x="1295.5" y="1200" as="targetPoint" />
          </mxGeometry>
        </mxCell>
        <mxCell id="p0VomlxSAg0T8OADrMNB-77" value="Use" style="endArrow=open;endSize=12;dashed=1;html=1;rounded=0;exitX=0.955;exitY=1.011;exitDx=0;exitDy=0;exitPerimeter=0;entryX=0;entryY=0;entryDx=0;entryDy=115;fontSize=14;entryPerimeter=0;" edge="1" parent="1" source="p0VomlxSAg0T8OADrMNB-18" target="p0VomlxSAg0T8OADrMNB-65">
          <mxGeometry width="160" relative="1" as="geometry">
            <mxPoint x="1442.5" y="1160" as="sourcePoint" />
            <mxPoint x="1350.5" y="1290" as="targetPoint" />
          </mxGeometry>
        </mxCell>
        <mxCell id="p0VomlxSAg0T8OADrMNB-78" value="Use" style="endArrow=open;endSize=12;dashed=1;html=1;rounded=0;exitX=1.004;exitY=0.528;exitDx=0;exitDy=0;exitPerimeter=0;fontSize=14;" edge="1" parent="1" source="p0VomlxSAg0T8OADrMNB-18" target="p0VomlxSAg0T8OADrMNB-9">
          <mxGeometry width="160" relative="1" as="geometry">
            <mxPoint x="1530.5" y="1150" as="sourcePoint" />
            <mxPoint x="1652.5" y="1482" as="targetPoint" />
          </mxGeometry>
        </mxCell>
        <mxCell id="p0VomlxSAg0T8OADrMNB-69" value="Enums" style="shape=folder;fontStyle=1;tabWidth=110;tabHeight=30;tabPosition=left;html=1;boundedLbl=1;labelInHeader=1;container=1;collapsible=0;recursiveResize=0;whiteSpace=wrap;fontSize=14;" vertex="1" parent="1">
          <mxGeometry x="1200" y="1410" width="380" height="270" as="geometry" />
        </mxCell>
        <mxCell id="p0VomlxSAg0T8OADrMNB-70" value="&lt;p style=&quot;margin:0px;margin-top:4px;text-align:center;&quot;&gt;&lt;i&gt;&amp;lt;&amp;lt;Enumeration&amp;gt;&amp;gt;&lt;/i&gt;&lt;br&gt;&lt;b&gt;NotificationType&lt;/b&gt;&lt;/p&gt;&lt;hr style=&quot;border-style:solid;&quot;&gt;&lt;p style=&quot;margin:0px;margin-left:4px;&quot;&gt;&amp;nbsp;&lt;span style=&quot;background-color: transparent;&quot;&gt;&amp;nbsp;REMINDER&lt;/span&gt;&lt;br&gt;&lt;/p&gt;&lt;p style=&quot;margin:0px;margin-left:4px;&quot;&gt;&amp;nbsp;STATUS_CHANGED&lt;/p&gt;" style="verticalAlign=top;align=left;overflow=fill;html=1;whiteSpace=wrap;fillColor=#dae8fc;strokeColor=#6c8ebf;rounded=1;fontSize=14;" vertex="1" parent="p0VomlxSAg0T8OADrMNB-69">
          <mxGeometry x="25.25" y="90" width="144.75" height="90" as="geometry" />
        </mxCell>
        <mxCell id="p0VomlxSAg0T8OADrMNB-90" value="&lt;p style=&quot;margin:0px;margin-top:4px;text-align:center;&quot;&gt;&lt;i&gt;&amp;lt;&amp;lt;Enumeration&amp;gt;&amp;gt;&lt;/i&gt;&lt;br&gt;&lt;b&gt;PrescriptionAction&lt;/b&gt;&lt;/p&gt;&lt;hr style=&quot;border-style:solid;&quot;&gt;&lt;p style=&quot;margin:0px;margin-left:4px;&quot;&gt;&amp;nbsp; CREATED&lt;/p&gt;&lt;p style=&quot;margin:0px;margin-left:4px;&quot;&gt;&amp;nbsp; UPDATED&lt;/p&gt;&lt;p style=&quot;margin:0px;margin-left:4px;&quot;&gt;&amp;nbsp; VALIDATED&lt;/p&gt;&lt;p style=&quot;margin:0px;margin-left:4px;&quot;&gt;&amp;nbsp;PARTIALLY_VALIDATED&lt;/p&gt;&lt;p style=&quot;margin:0px;margin-left:4px;&quot;&gt;&amp;nbsp; RENEWED&lt;/p&gt;&lt;p style=&quot;margin:0px;margin-left:4px;&quot;&gt;&amp;nbsp; REJECTED&lt;/p&gt;&lt;p style=&quot;margin:0px;margin-left:4px;&quot;&gt;&amp;nbsp; DELETED&lt;/p&gt;&lt;p style=&quot;margin:0px;margin-left:4px;&quot;&gt;&amp;nbsp; EXPIRED&lt;/p&gt;&lt;p style=&quot;margin:0px;margin-left:4px;&quot;&gt;&amp;nbsp; SCANNED&lt;/p&gt;" style="verticalAlign=top;align=left;overflow=fill;html=1;whiteSpace=wrap;fillColor=#dae8fc;strokeColor=#6c8ebf;rounded=1;fontSize=14;" vertex="1" parent="p0VomlxSAg0T8OADrMNB-69">
          <mxGeometry x="198" y="40" width="150" height="210" as="geometry" />
        </mxCell>
        <mxCell id="p0VomlxSAg0T8OADrMNB-75" value="type" style="endArrow=open;endSize=12;dashed=1;html=1;rounded=0;exitX=0.989;exitY=0.784;exitDx=0;exitDy=0;exitPerimeter=0;entryX=0;entryY=0.5;entryDx=0;entryDy=0;fontSize=14;" edge="1" parent="1" source="p0VomlxSAg0T8OADrMNB-4" target="p0VomlxSAg0T8OADrMNB-70">
          <mxGeometry width="160" relative="1" as="geometry">
            <mxPoint x="1507.5" y="1630" as="sourcePoint" />
            <mxPoint x="1370.5" y="1775" as="targetPoint" />
          </mxGeometry>
        </mxCell>
        <mxCell id="p0VomlxSAg0T8OADrMNB-97" value="Use" style="endArrow=open;endSize=12;dashed=1;html=1;rounded=0;exitX=0.393;exitY=0.974;exitDx=0;exitDy=0;exitPerimeter=0;fontSize=14;entryX=0.48;entryY=0.049;entryDx=0;entryDy=0;entryPerimeter=0;" edge="1" parent="1" source="p0VomlxSAg0T8OADrMNB-10" target="p0VomlxSAg0T8OADrMNB-66">
          <mxGeometry width="160" relative="1" as="geometry">
            <mxPoint x="1250" y="985" as="sourcePoint" />
            <mxPoint x="1470" y="820" as="targetPoint" />
          </mxGeometry>
        </mxCell>
        <mxCell id="p0VomlxSAg0T8OADrMNB-98" value="Use" style="endArrow=open;endSize=12;dashed=1;html=1;rounded=0;exitX=0.811;exitY=0.998;exitDx=0;exitDy=0;exitPerimeter=0;fontSize=14;entryX=0.835;entryY=0.043;entryDx=0;entryDy=0;entryPerimeter=0;" edge="1" parent="1" source="p0VomlxSAg0T8OADrMNB-88" target="p0VomlxSAg0T8OADrMNB-94">
          <mxGeometry width="160" relative="1" as="geometry">
            <mxPoint x="1610" y="1245" as="sourcePoint" />
            <mxPoint x="1830" y="1080" as="targetPoint" />
          </mxGeometry>
        </mxCell>
        <mxCell id="p0VomlxSAg0T8OADrMNB-99" value="Use" style="endArrow=open;endSize=12;dashed=1;html=1;rounded=0;exitX=1;exitY=0.5;exitDx=0;exitDy=0;fontSize=14;entryX=0.995;entryY=0.446;entryDx=0;entryDy=0;entryPerimeter=0;" edge="1" parent="1" source="p0VomlxSAg0T8OADrMNB-88" target="p0VomlxSAg0T8OADrMNB-90">
          <mxGeometry width="160" relative="1" as="geometry">
            <mxPoint x="1674" y="950" as="sourcePoint" />
            <mxPoint x="1640" y="1258" as="targetPoint" />
            <Array as="points">
              <mxPoint x="1800" y="840" />
              <mxPoint x="1800" y="1544" />
            </Array>
          </mxGeometry>
        </mxCell>
      </root>
    </mxGraphModel>
  </diagram>
</mxfile>
